<?xml version="1.0" encoding="UTF-8" standalone="no"?>

<!-- ####################################################################

This file was generates automatically via the 
IconPacks.Browser (MIT-License). 

Visit https://github.com/MahApps/MahApps.Metro.IconPacks and 
https://github.com/MahApps/MahApps.Metro.IconPacks/blob/develop/LICENSE 
for more information.
 
~~~~~~~~~~~~~~~~~~~~~~~~~~~~~~~~~~~~~~~~~~~~~~~~~~~~~~~~~~~~~~~~~~~~~~~~~~
 
Icon-Name: 			AutoCad
Iconpack:			SimpleIcons
Iconpack-Homepage: 	https://github.com/simple-icons/simple-icons
Iconpack-License:	https://github.com/simple-icons/simple-icons?tab=CC0-1.0-1-ov-file#readme

#####################################################################-->


<svg xmlns="http://www.w3.org/2000/svg"
     width="24"
     height="24">
    <path d="M3.8672 1.0527v.0157L0 3.3848v17.914l3.8965-2.332h18.3398V2.3301c0-.702-.5773-1.2774-1.2793-1.2774H3.8672zm7.5058 4.0098h3.3008l2.9844 9.9512h-2.5879l-.5683-2.1895h-2.9844l-.5703 2.1621h-2.416l2.8417-9.9238zm11.8633.0273v14.877H4.172l-2.0684 1.2383v.4648c0 .702.5793 1.2774 1.2813 1.2774H24V5.0898h-.7637zM12.9668 6.6816l-.9941 4.3243h2.0468l-1.0527-4.3243z"
          style="fill:#868E96;
                 stroke:none
                 stroke-width:0;
                 stroke-linecap:flat;
                 stroke-linejoin:miter;"
          transform="matrix(1,0,0,1,0,0)" />
</svg>